<?xml version="1.0" standalone="no"?>
<!DOCTYPE svg PUBLIC "-//W3C//DTD SVG 20010904//EN"
 "http://www.w3.org/TR/2001/REC-SVG-20010904/DTD/svg10.dtd">
<svg version="1.0" xmlns="http://www.w3.org/2000/svg"
 width="997.000000pt" height="250.000000pt" viewBox="0 0 997.000000 250.000000"
 preserveAspectRatio="xMidYMid meet">

<g transform="translate(0.000000,250.000000) scale(0.100000,-0.100000)"
fill="#000000" stroke="none">
<path d="M4235 2478 c-55 -19 -94 -69 -196 -246 -10 -18 -44 -74 -75 -125 -31
-50 -74 -123 -94 -162 -21 -38 -42 -71 -47 -72 -5 -2 -15 9 -22 24 -46 103
-154 214 -255 262 -101 49 -168 62 -331 68 -155 5 -318 -14 -455 -53 -30 -8
-71 -19 -90 -24 -84 -22 -286 -99 -416 -161 -23 -10 -44 -19 -48 -19 -12 0
-307 -159 -358 -194 l-51 -34 -64 30 c-35 16 -112 40 -171 54 -100 24 -118 26
-297 22 -164 -4 -203 -8 -285 -31 -275 -75 -483 -187 -652 -351 -104 -101
-137 -141 -197 -240 -149 -243 -161 -542 -29 -764 46 -78 164 -193 247 -241
212 -124 465 -172 727 -137 489 65 921 366 1070 747 85 218 83 382 -7 577 -35
77 -104 169 -160 213 l-41 33 27 20 c31 24 229 132 320 175 327 156 495 204
715 205 115 1 146 -2 210 -22 120 -38 233 -125 303 -233 l17 -26 -87 -22 c-49
-12 -113 -32 -143 -43 -100 -38 -264 -129 -355 -198 -81 -62 -204 -180 -230
-221 -5 -9 -29 -44 -53 -78 -133 -190 -180 -453 -117 -649 133 -417 625 -624
1189 -502 142 31 333 110 451 185 134 86 283 226 367 345 59 84 124 227 143
319 18 88 19 234 1 316 -25 118 -117 267 -218 354 -82 71 -189 130 -292 162
-101 31 -227 58 -278 59 -37 0 -35 10 10 62 20 24 96 122 169 219 72 96 140
183 151 192 52 47 233 81 305 58 72 -24 97 -92 56 -157 -21 -34 -124 -109
-200 -144 l-44 -21 65 6 c101 10 150 24 206 56 69 39 117 112 118 178 1 66
-53 140 -130 176 -119 56 -298 81 -379 53z m-2780 -790 c62 -12 147 -38 158
-48 5 -4 -9 -18 -30 -31 -66 -41 -244 -176 -381 -289 -90 -75 -314 -302 -369
-373 l-44 -59 48 26 c26 15 80 50 119 79 40 29 85 60 100 69 16 10 63 42 104
72 117 85 165 120 308 219 116 81 178 122 282 190 l28 18 55 -51 c71 -65 129
-151 159 -237 19 -57 23 -87 22 -183 0 -98 -4 -127 -27 -196 -15 -45 -41 -102
-57 -128 -17 -26 -30 -49 -30 -52 0 -14 -125 -157 -173 -197 -63 -55 -225
-162 -258 -172 -13 -4 -47 -18 -75 -31 -142 -65 -326 -99 -497 -91 -145 7
-232 29 -367 95 -77 37 -109 60 -170 121 -90 91 -135 175 -158 301 -14 77 -14
93 1 185 19 119 45 184 111 285 94 143 257 285 421 368 106 53 323 114 445
126 61 5 214 -3 275 -16z m2594 -75 c115 -29 228 -93 312 -175 72 -71 104
-121 136 -212 88 -260 -21 -558 -287 -779 -52 -43 -115 -89 -140 -101 -232
-118 -254 -126 -405 -152 -135 -24 -311 -22 -437 4 -117 25 -161 44 -271 117
-142 94 -232 236 -248 389 -14 135 7 260 60 364 144 283 432 491 774 560 47
10 49 9 59 -17 41 -107 74 -302 88 -516 5 -88 16 -181 24 -207 20 -63 46 -118
57 -118 10 0 31 71 60 200 41 189 49 261 49 472 l0 207 38 -6 c20 -3 79 -17
131 -30z"/>
<path d="M4950 2066 c0 -400 1 -428 21 -491 33 -109 110 -169 245 -194 36 -7
246 -11 551 -11 l493 0 0 140 0 140 -449 0 c-287 0 -459 4 -478 10 -17 6 -35
22 -42 36 -7 17 -11 143 -11 409 l0 385 -165 0 -165 0 0 -424z"/>
<path d="M6390 1930 l0 -560 170 0 170 0 0 560 0 560 -170 0 -170 0 0 -560z"/>
<path d="M6868 2473 c4 -10 33 -67 64 -128 30 -60 138 -272 238 -470 101 -201
198 -380 219 -405 24 -28 63 -58 106 -80 63 -32 75 -35 175 -38 167 -6 268 34
340 134 27 38 510 984 510 1000 0 2 -88 4 -195 4 -155 0 -195 -3 -195 -13 0
-7 -24 -63 -54 -123 -29 -60 -95 -197 -146 -304 -179 -378 -192 -401 -214
-409 -11 -5 -30 -5 -41 -1 -21 7 -30 23 -155 285 -45 94 -120 249 -167 345
-47 96 -89 185 -94 198 -8 22 -10 22 -203 22 -182 0 -195 -1 -188 -17z"/>
<path d="M8764 2481 c-49 -12 -93 -51 -104 -93 -7 -23 -10 -203 -8 -480 3
-440 3 -443 25 -474 47 -66 28 -64 686 -64 533 0 595 2 601 16 8 21 8 159 0
218 l-7 46 -476 0 c-358 0 -480 3 -489 12 -7 7 -12 42 -12 85 l0 73 488 2 487
3 3 103 3 102 -491 0 -491 0 3 78 3 77 487 3 487 2 3 103 c2 57 -2 121 -8 144
-7 23 -9 44 -6 47 8 9 -1148 5 -1184 -3z"/>
<path d="M5015 1121 c-55 -11 -55 -12 -55 -553 0 -522 2 -543 44 -554 12 -2
262 -3 556 -2 l535 3 59 24 c210 85 275 353 119 490 l-45 41 44 42 c34 34 48
57 62 107 55 196 -82 371 -315 401 -81 10 -955 12 -1004 1z m930 -285 c38 -16
55 -42 55 -84 0 -41 -46 -79 -107 -88 -33 -5 -566 0 -590 5 -6 2 -2 168 4 174
3 4 141 7 305 7 235 0 306 -3 333 -14z m31 -400 c36 -36 41 -59 22 -100 -26
-59 -36 -61 -357 -64 -162 -2 -305 -1 -318 3 -22 5 -23 9 -23 100 l0 95 321 0
321 0 34 -34z"/>
<path d="M6500 570 l0 -560 165 0 165 0 0 560 0 560 -165 0 -165 0 0 -560z"/>
<path d="M7020 570 l0 -560 170 0 170 0 0 246 0 246 29 -19 c16 -10 101 -72
188 -138 87 -66 177 -133 199 -150 23 -16 72 -52 110 -80 37 -27 82 -62 99
-77 l32 -27 243 -1 c133 -1 244 1 246 3 2 2 -60 50 -138 107 -142 102 -226
163 -388 283 -47 35 -99 72 -116 82 -64 40 -144 106 -144 119 0 7 21 27 48 44
26 17 92 62 147 100 179 125 354 246 418 288 34 23 76 54 92 68 l30 25 -229 1
-230 0 -25 -24 c-15 -14 -51 -42 -83 -63 -31 -21 -118 -83 -193 -138 -141
-103 -203 -148 -267 -190 -20 -13 -39 -29 -43 -35 -20 -33 -25 8 -25 220 l0
230 -170 0 -170 0 0 -560z"/>
<path d="M8770 1121 c-45 -9 -69 -23 -100 -56 l-25 -27 0 -468 c0 -458 0 -469
21 -497 47 -65 26 -63 692 -63 l602 0 0 140 0 140 -487 2 -488 3 -3 82 -3 83
488 2 488 3 3 103 3 102 -491 0 -490 0 0 80 0 80 490 0 490 0 0 150 0 150
-577 -1 c-318 -1 -594 -4 -613 -8z"/>
</g>
</svg>
