<?xml version="1.0" standalone="no"?>
<!DOCTYPE svg PUBLIC "-//W3C//DTD SVG 20010904//EN"
 "http://www.w3.org/TR/2001/REC-SVG-20010904/DTD/svg10.dtd">
<svg version="1.0" xmlns="http://www.w3.org/2000/svg"
 width="328.000000pt" height="353.000000pt" viewBox="0 0 328.000000 353.000000"
 preserveAspectRatio="xMidYMid meet">

<g transform="translate(0.000000,353.000000) scale(0.100000,-0.100000)"
fill="#000000" stroke="none">
<path d="M2892 3478 c-25 -13 -147 -203 -215 -335 -23 -46 -47 -83 -54 -83 -6
0 -15 12 -21 28 -28 78 -139 171 -246 204 -192 60 -506 -3 -845 -168 -74 -36
-164 -84 -199 -105 -35 -21 -70 -39 -77 -39 -7 0 -38 11 -70 25 -129 58 -404
57 -565 0 -288 -103 -505 -309 -565 -536 -30 -111 -13 -264 38 -349 80 -133
200 -217 377 -261 73 -19 103 -21 215 -16 407 18 757 274 841 617 34 141 -7
280 -117 395 -52 55 -60 67 -49 80 19 23 314 169 410 203 209 73 395 82 515
23 80 -40 176 -135 161 -160 -3 -5 -30 -15 -58 -21 -80 -19 -240 -92 -310
-143 -144 -102 -247 -233 -293 -372 -34 -100 -41 -168 -25 -236 39 -168 127
-277 284 -354 182 -89 376 -96 606 -23 174 56 292 127 412 250 63 64 87 98
130 185 l53 106 0 121 c0 115 -1 124 -32 189 -75 157 -262 281 -456 302 -82 9
-92 23 -50 68 17 18 69 85 117 149 114 154 150 178 260 178 56 0 65 -3 90 -29
24 -25 27 -35 22 -64 -8 -41 -32 -64 -116 -111 -57 -31 -61 -35 -30 -30 124
21 177 51 209 117 20 42 21 48 8 80 -16 38 -53 68 -122 98 -55 24 -198 35
-233 17z m-1856 -535 c104 -20 107 -32 21 -90 -153 -104 -385 -309 -471 -418
l-31 -40 30 19 c17 10 39 27 50 36 17 16 263 193 335 242 14 10 50 35 80 57
162 118 178 122 234 66 47 -47 85 -114 102 -181 12 -45 13 -73 4 -149 -11
-103 -18 -124 -69 -204 -112 -179 -308 -305 -531 -342 -131 -21 -153 -22 -248
-4 -181 33 -303 116 -366 248 -60 128 -56 242 14 385 112 227 388 387 673 391
49 0 126 -6 173 -16z m1448 -51 c23 -45 44 -167 51 -306 7 -133 26 -231 50
-255 14 -15 10 -29 55 207 21 109 29 316 15 354 -10 25 9 30 82 17 149 -25
276 -117 340 -246 35 -72 37 -80 36 -168 -2 -76 -7 -104 -28 -156 -74 -174
-223 -315 -410 -387 -178 -68 -334 -80 -483 -38 -138 40 -233 110 -300 225
-30 52 -43 154 -31 254 25 205 224 409 484 496 113 37 121 37 139 3z"/>
<path d="M117 1523 c-11 -11 -8 -468 4 -521 13 -64 52 -110 114 -133 45 -17
80 -19 363 -19 l312 0 0 80 0 80 -290 0 -290 0 -11 28 c-7 16 -10 111 -9 247
1 121 2 226 1 233 -1 9 -27 12 -94 12 -52 0 -97 -3 -100 -7z"/>
<path d="M994 1516 c-2 -6 -3 -157 -2 -336 l3 -325 98 -3 97 -3 0 338 0 338
-96 1 c-60 0 -98 -4 -100 -10z"/>
<path d="M1290 1521 c0 -17 279 -561 306 -598 14 -18 45 -45 71 -60 90 -52
224 -28 292 53 25 29 326 603 318 604 -16 3 -218 2 -221 -1 -2 -2 -54 -112
-116 -244 -61 -132 -115 -247 -119 -255 -5 -8 -21 -15 -37 -15 -25 0 -33 7
-54 50 -35 71 -145 301 -185 390 l-34 75 -79 0 c-44 0 -94 3 -111 6 -20 4 -31
3 -31 -5z"/>
<path d="M2752 1520 l-344 -5 -19 -24 c-18 -22 -19 -42 -19 -303 l0 -280 31
-29 31 -29 364 0 364 0 0 78 0 79 -295 -1 c-325 -1 -315 -3 -315 61 0 67 -18
63 311 63 l299 0 0 53 0 53 -297 3 c-163 1 -300 4 -306 8 -12 7 -3 91 12 106
17 17 403 22 504 7 44 -6 82 -8 85 -5 4 4 7 43 7 88 l0 82 -35 0 c-19 1 -190
-2 -378 -5z"/>
<path d="M150 688 l-25 -14 -3 -310 c-2 -251 0 -313 12 -329 13 -18 30 -19
342 -16 239 2 336 6 359 15 82 35 142 123 130 193 -7 39 -38 91 -62 106 -17
11 -17 43 2 50 20 8 55 81 55 114 -1 68 -59 144 -139 180 -49 23 -631 32 -671
11z m574 -162 c39 -16 51 -42 37 -79 -15 -40 -65 -48 -268 -45 l-178 3 -3 54
c-2 29 -1 60 2 67 8 20 362 20 410 0z m27 -245 c27 -33 25 -77 -5 -96 -19 -13
-57 -15 -227 -13 l-204 3 -3 59 c-2 40 1 62 10 68 7 5 102 7 211 6 195 -3 199
-3 218 -27z"/>
<path d="M1067 694 c-4 -4 -7 -157 -7 -341 l0 -333 100 0 100 0 -2 338 -3 337
-90 3 c-50 2 -94 0 -98 -4z"/>
<path d="M1393 694 c-10 -4 -13 -82 -13 -340 l0 -334 101 0 102 0 -5 150 c-5
123 -3 150 8 150 7 0 49 -28 93 -63 194 -153 304 -232 329 -238 41 -10 262
-10 262 -1 0 5 -42 37 -92 71 -51 34 -142 98 -203 142 -60 45 -127 92 -147
105 -46 29 -49 58 -10 78 16 8 100 64 188 124 87 60 174 117 192 126 17 9 32
21 32 26 0 6 -50 10 -124 10 l-123 0 -124 -91 c-68 -51 -153 -114 -188 -140
-97 -73 -96 -74 -96 88 l0 138 -85 2 c-47 1 -91 -1 -97 -3z"/>
<path d="M2441 691 c-67 -12 -70 -23 -73 -333 -3 -268 -2 -277 18 -305 l21
-28 364 -5 c200 -3 370 -4 377 -2 8 3 12 28 12 81 l0 77 -288 -4 c-260 -4
-290 -3 -305 13 -19 19 -24 100 -6 111 9 5 353 5 554 0 l40 -1 3 57 3 58 -303
2 -303 3 1 48 c0 31 6 52 15 57 8 6 139 7 302 4 l287 -6 0 90 0 90 -342 0
c-189 0 -358 -3 -377 -7z"/>
</g>
</svg>
