<?xml version="1.0" standalone="no"?>
<!DOCTYPE svg PUBLIC "-//W3C//DTD SVG 20010904//EN"
 "http://www.w3.org/TR/2001/REC-SVG-20010904/DTD/svg10.dtd">
<svg version="1.0" xmlns="http://www.w3.org/2000/svg"
 width="328.000000pt" height="353.000000pt" viewBox="0 0 328.000000 353.000000"
 preserveAspectRatio="xMidYMid meet">

<g transform="translate(0.000000,353.000000) scale(0.100000,-0.100000)"
fill="#000000" stroke="none">
<path d="M2900 3480 c-33 -13 -199 -274 -247 -387 -18 -44 -40 -42 -59 7 -19
48 -112 136 -178 168 -26 13 -86 31 -133 39 -141 24 -303 -2 -543 -87 -109
-39 -363 -160 -450 -215 -48 -30 -64 -31 -117 -5 -70 34 -133 43 -283 43 -161
0 -234 -13 -352 -63 -208 -89 -375 -234 -457 -398 -48 -96 -64 -172 -58 -275
4 -76 10 -99 40 -160 143 -284 523 -386 907 -241 239 89 439 275 508 472 39
110 47 168 33 235 -18 92 -72 196 -131 251 -27 26 -50 52 -50 59 0 7 10 19 23
26 61 39 343 173 410 196 122 41 264 67 328 60 69 -7 160 -30 200 -51 34 -17
99 -79 125 -120 17 -25 17 -27 0 -39 -10 -8 -36 -17 -59 -20 -45 -8 -152 -52
-225 -92 -152 -84 -312 -258 -358 -390 -45 -131 -52 -193 -29 -278 36 -140
114 -244 235 -315 184 -109 410 -126 645 -48 261 86 450 238 549 440 125 254
36 515 -218 642 -95 47 -152 66 -206 66 -97 1 -111 20 -59 80 16 19 62 78 101
130 115 154 146 180 235 195 56 9 93 0 126 -31 55 -51 23 -119 -82 -175 l-56
-30 47 5 c140 16 233 137 168 219 -37 47 -135 87 -225 92 -44 3 -91 0 -105 -5z
m-1835 -537 c86 -14 75 -33 -77 -143 -88 -63 -181 -143 -277 -238 -79 -78
-141 -145 -138 -148 3 -4 32 14 64 38 55 43 253 186 376 272 32 23 72 53 90
68 17 15 51 36 74 48 39 20 44 20 72 5 41 -21 104 -107 131 -180 19 -52 21
-71 15 -149 -9 -115 -23 -158 -77 -242 -140 -216 -393 -348 -668 -348 -221 0
-401 97 -480 261 -30 62 -33 76 -33 163 0 76 4 107 23 155 83 216 289 381 550
441 58 13 265 11 355 -3z m1419 -50 c24 -49 44 -164 55 -318 9 -143 31 -245
52 -245 5 0 9 1 9 3 0 7 33 178 42 217 6 25 12 116 13 203 2 87 5 160 8 163
11 11 144 -19 203 -46 87 -39 176 -125 217 -209 29 -62 31 -73 30 -168 -1 -97
-2 -105 -41 -185 -66 -136 -203 -270 -342 -335 -221 -103 -469 -110 -649 -18
-68 34 -157 123 -195 194 -26 49 -29 63 -29 160 -2 127 13 178 82 283 48 74
119 145 201 201 77 53 244 119 317 126 7 1 19 -11 27 -26z"/>
<path d="M113 1514 c-3 -8 -3 -127 -1 -266 4 -278 9 -306 69 -348 64 -47 94
-50 420 -50 l309 0 0 80 0 80 -290 0 c-276 0 -290 1 -300 19 -6 12 -10 113
-10 260 l0 240 -96 -1 c-69 -1 -97 -5 -101 -14z"/>
<path d="M1002 1515 c-4 -5 -7 -19 -6 -30 1 -11 2 -158 3 -327 l1 -308 95 0
95 0 -2 336 -3 337 -88 1 c-50 0 -92 -3 -95 -9z"/>
<path d="M1290 1521 c0 -2 41 -86 91 -185 51 -100 112 -221 137 -271 91 -183
140 -225 258 -225 76 0 133 22 177 67 14 16 87 149 163 298 75 148 143 280
152 293 l15 23 -114 -3 -114 -3 -22 -45 c-32 -66 -125 -264 -162 -345 -55
-121 -54 -120 -86 -120 -34 0 -44 17 -190 330 -43 94 -81 173 -84 177 -6 7
-221 16 -221 9z"/>
<path d="M2768 1520 c-325 -5 -359 -7 -375 -23 -16 -16 -18 -44 -21 -270 -4
-308 -1 -332 41 -358 30 -18 53 -19 390 -19 l357 0 0 78 0 77 -284 -3 c-201
-3 -290 0 -305 8 -19 10 -22 19 -19 63 l3 52 303 3 303 2 -3 52 -3 52 -292 1
c-201 0 -295 3 -303 11 -6 6 -10 31 -8 55 5 69 11 71 308 65 140 -2 264 -6
275 -8 19 -3 20 3 23 85 3 79 1 87 -15 85 -10 -1 -179 -5 -375 -8z"/>
<path d="M2083 690 c-103 -4 -125 -8 -145 -25 -13 -11 -54 -43 -93 -70 -38
-27 -74 -53 -80 -57 -111 -87 -170 -128 -179 -125 -7 3 -10 48 -7 140 l3 137
-101 0 -101 0 0 -335 0 -335 102 0 101 0 -6 150 c-4 85 -2 152 3 155 5 3 24
-7 42 -23 18 -16 72 -58 119 -93 47 -35 122 -92 165 -125 l80 -62 135 -2 c73
-1 138 -2 143 -1 6 0 -19 20 -55 44 -35 24 -118 82 -184 130 -66 48 -146 105
-177 128 -33 23 -58 48 -58 58 0 11 36 41 98 81 53 35 140 94 192 131 52 37
107 73 123 80 27 12 37 31 15 27 -7 -1 -68 -5 -135 -8z"/>
<path d="M130 671 c-16 -31 -14 -612 3 -635 12 -16 38 -17 352 -14 l340 3 42
27 c64 42 93 91 93 159 0 49 -4 60 -35 96 -34 40 -45 73 -25 73 5 0 21 20 36
46 21 36 25 53 21 86 -8 61 -53 118 -116 151 l-55 27 -322 0 c-309 0 -324 -1
-334 -19z m594 -141 c33 -12 49 -44 41 -80 -10 -43 -52 -51 -267 -48 l-183 3
-3 54 c-2 29 -1 60 2 67 4 11 44 14 195 14 104 0 201 -4 215 -10z m25 -244
c26 -24 28 -77 3 -99 -16 -14 -48 -17 -218 -18 -109 -1 -205 -1 -211 0 -9 1
-13 21 -13 65 0 42 4 66 13 70 6 3 100 4 208 3 178 -2 199 -4 218 -21z"/>
<path d="M1060 355 l0 -335 100 0 100 0 0 335 0 335 -100 0 -100 0 0 -335z"/>
<path d="M2399 671 l-24 -19 0 -297 0 -297 24 -19 c22 -18 44 -19 392 -19
l369 0 0 78 0 77 -290 -4 c-220 -2 -294 0 -305 9 -10 8 -15 31 -15 66 0 49 2
54 23 55 12 1 149 0 305 -1 l282 -2 0 56 0 56 -302 2 -303 3 -3 43 c-6 77 -15
75 315 70 l293 -5 0 84 0 83 -369 0 c-348 0 -370 -1 -392 -19z"/>
</g>
</svg>
